<?xml version="1.0" standalone="no"?>
<!DOCTYPE svg PUBLIC "-//W3C//DTD SVG 20010904//EN"
 "http://www.w3.org/TR/2001/REC-SVG-20010904/DTD/svg10.dtd">
<svg version="1.0" xmlns="http://www.w3.org/2000/svg"
 width="512.000000pt" height="512.000000pt" viewBox="0 0 512.000000 512.000000"
 preserveAspectRatio="xMidYMid meet">
<metadata>
Created by potrace 1.11, written by Peter Selinger 2001-2013
</metadata>
<g transform="translate(0.000000,512.000000) scale(0.100000,-0.100000)"
fill="#000000" stroke="none">
<path d="M1314 4459 c-677 -111 -1206 -657 -1301 -1342 -10 -70 -10 -314 0
-405 23 -219 126 -486 264 -685 72 -103 73 -105 178 -211 107 -108 124 -123
229 -193 45 -29 86 -57 92 -62 18 -15 197 -98 256 -120 76 -27 205 -60 303
-77 77 -13 421 -14 470 -1 11 2 40 8 65 12 66 10 203 52 299 92 46 18 87 33
91 31 5 -2 32 -37 62 -78 229 -320 576 -549 943 -624 44 -9 91 -19 105 -22 14
-4 106 -8 205 -9 201 -3 330 13 485 62 47 15 87 28 90 28 12 3 51 21 136 61
279 131 543 381 697 661 43 77 117 257 131 314 l6 26 -212 57 c-116 31 -212
55 -213 54 -1 -2 -12 -32 -25 -68 -100 -283 -301 -511 -567 -644 -63 -32 -170
-72 -218 -82 -234 -51 -456 -42 -650 26 -164 57 -297 141 -426 269 -182 182
-297 412 -325 652 l-7 57 -31 -37 c-176 -206 -390 -334 -651 -391 -175 -38
-472 -15 -614 46 -126 55 -165 75 -242 126 -219 145 -388 379 -456 628 -58
215 -52 456 18 662 57 171 136 297 273 434 177 178 398 289 646 323 64 9 312
7 327 -2 5 -3 28 -8 51 -12 126 -19 318 -104 441 -197 46 -35 90 -67 98 -73
10 -7 50 27 163 140 82 82 150 154 150 158 0 10 -8 18 -80 78 -166 138 -382
249 -592 305 -35 9 -72 18 -83 20 -11 1 -45 8 -75 14 -94 21 -379 20 -506 -1z"/>
<path d="M1549 3906 c-2 -2 -36 -7 -76 -10 -341 -31 -662 -258 -803 -570 -62
-137 -82 -227 -85 -391 -3 -132 -1 -162 21 -249 45 -183 132 -338 263 -466 97
-96 114 -109 197 -158 163 -95 334 -140 519 -136 160 3 259 25 400 89 262 119
470 367 545 648 25 95 101 249 166 334 36 49 177 190 228 228 264 201 617 271
961 191 83 -19 271 -100 306 -132 8 -8 19 -14 23 -14 5 0 37 -23 73 -51 183
-144 308 -316 383 -529 13 -36 25 -66 26 -68 2 -3 75 16 324 84 52 15 96 27
98 29 7 6 -55 171 -100 265 -60 124 -98 185 -189 300 -104 132 -208 227 -359
328 -192 129 -401 209 -650 247 -85 13 -383 14 -445 1 -52 -11 -79 -16 -110
-22 -51 -9 -167 -44 -235 -71 -438 -173 -783 -540 -920 -978 -44 -143 -76
-201 -150 -276 -116 -117 -250 -170 -417 -163 -113 4 -203 36 -300 108 -272
199 -298 597 -57 832 187 181 490 207 696 58 27 -19 51 -34 55 -34 4 0 76 69
160 152 l153 153 -33 28 c-59 52 -180 126 -256 158 -98 42 -237 75 -326 78
-38 1 -72 4 -76 6 -3 3 -8 3 -10 1z"/>
<path d="M3506 3308 c-260 -24 -495 -151 -676 -364 -94 -110 -173 -284 -203
-448 -15 -78 -16 -276 -2 -341 19 -94 52 -190 89 -265 340 -688 1294 -746
1717 -106 50 76 114 212 124 267 3 13 -33 26 -191 68 -234 63 -234 63 -234 48
0 -33 -73 -159 -122 -212 -174 -187 -454 -232 -676 -109 -200 111 -313 351
-272 576 54 294 336 491 638 444 182 -29 358 -175 420 -348 15 -43 19 -47 42
-41 14 3 90 23 170 44 80 22 164 44 188 50 23 7 42 13 42 14 0 13 -47 132 -75
188 -63 129 -196 282 -318 366 -190 131 -427 191 -661 169z"/>
</g>
</svg>
